<svg xmlns="http://www.w3.org/2000/svg" viewBox="0 0 150 90" enable-background="new 0 0 150 90"><text transform="translate(24.372 72.619)" fill="#fff" font-family="'WhitneyHTF-SemiBoldSC'" font-size="19.217">Elise’s Elite</text><text transform="translate(39.684 83.244)" fill="#fff" font-family="'WhitneyHTF-SemiBoldSC'" font-size="11.261">Dog Walking</text><g fill="#456E78"><path d="M54.9 6.6h36.2v35.7h-36.2zM54.9 6.6v39.2l12.3-1 7.3 11.4 7.3-11.4 12.3 1v-39.2h-39.2zm21.4 6.1l9.7 3-1.8 2.6h-10.3l-1-9.2c0-.1 3.4 3.6 3.4 3.6zm-10.1-1.4c1.3 3.1 5.7 7.3 5.9 7.4h8.9v1h-9c-.2 0-5-4.1-6.7-8l.9-.4zm16 27.6l-3.1-8.1-4.5 2.1c-.4.2-.8.6-.9 2.1h2.5s2.3.2 1.5 2.6c-.3.7-.6 1.3-.6 1.3h-11.4l-3.3-6.6c-2.2-.6-3.9-2.6-3.9-5 0-.3 0-.5.1-.8.1-.4.3-1 .7.1v-.1c.6 1.5 1.9 2.6 3.6 4l10.4-9.3h8l6.2 18.6-5.3-.9z"/></g><path fill="#fff" d="M51.4 4.1h36.4v35.3h-36.4z"/><path fill="#212221" d="M51.4 3.2v39.2l12.3-1 7.3 11.4 7.3-11.4 12.3 1v-39.2h-39.2zm21.3 6.1l9.7 3-1.8 2.6h-10.2l-1-9.2c0-.1 3.3 3.6 3.3 3.6zm-10-1.3c1.3 3.1 5.7 7.3 5.9 7.4h8.9v1h-9c-.2 0-5-4.1-6.7-8-.1-.1.9-.4.9-.4zm16 27.5l-3.1-8.1-4.5 2.1c-.4.2-.8.6-.9 2.1h2.5s2.3.2 1.5 2.6c-.3.7-.6 1.3-.6 1.3h-11.5l-3.3-6.5c-2.2-.6-3.9-2.6-3.9-5 0-.3 0-.5.1-.8.1-.4.3-1 .7.1v-.1c.6 1.5 1.9 2.6 3.6 4l10.4-9.3h8l6.2 18.6-5.2-1z"/></svg>