<?xml version="1.0" encoding="utf-8"?>
<!-- Generator: Adobe Illustrator 18.0.0, SVG Export Plug-In . SVG Version: 6.00 Build 0)  -->
<!DOCTYPE svg PUBLIC "-//W3C//DTD SVG 1.1//EN" "http://www.w3.org/Graphics/SVG/1.1/DTD/svg11.dtd">
<svg version="1.1" id="Layer_1" xmlns="http://www.w3.org/2000/svg" xmlns:xlink="http://www.w3.org/1999/xlink" x="0px" y="0px"
	 viewBox="0 0 150 90" enable-background="new 0 0 150 90" xml:space="preserve">
<text transform="matrix(1 0 0 1 24.3724 72.619)" fill="#FFFFFF" font-family="'WhitneyHTF-SemiBoldSC'" font-size="19.2173">Elise’s Elite</text>
<text transform="matrix(1 0 0 1 39.6844 83.2442)" fill="#FFFFFF" font-family="'WhitneyHTF-SemiBoldSC'" font-size="11.2613">Dog Walking</text>
<g>
	<rect x="54.9" y="6.6" fill="#456E78" width="36.2" height="35.7"/>
	<path fill="#456E78" d="M54.9,6.6v39.2l12.3-1l7.3,11.4l7.3-11.4l12.3,1V6.6H54.9z M76.3,12.7l9.7,3l-1.8,2.6H73.9l-1-9.2
		C72.9,9,76.3,12.7,76.3,12.7z M66.2,11.3c1.3,3.1,5.7,7.3,5.9,7.4H81v1l-9,0c-0.2,0-5-4.1-6.7-8C65.3,11.7,66.2,11.3,66.2,11.3z
		 M82.2,38.9l-3.1-8.1l-4.5,2.1c-0.4,0.2-0.8,0.6-0.9,2.1c0,0,0.8,0,2.5,0h0c0,0,2.3,0.2,1.5,2.6v0c-0.3,0.7-0.6,1.3-0.6,1.3H65.7
		l-3.3-6.6c-2.2-0.6-3.9-2.6-3.9-5c0-0.3,0-0.5,0.1-0.8c0.1-0.4,0.3-1,0.7,0.1l0-0.1c0.6,1.5,1.9,2.6,3.6,4l10.4-9.3h8l6.2,18.6
		L82.2,38.9L82.2,38.9z"/>
</g>
<g>
	<rect x="51.4" y="4.1" fill="#FFFFFF" width="36.4" height="35.3"/>
	<path fill="#212221" d="M51.4,3.2v39.2l12.3-1L71,52.8l7.3-11.4l12.3,1V3.2H51.4z M72.7,9.3l9.7,3l-1.8,2.6H70.4l-1-9.2
		C69.4,5.6,72.7,9.3,72.7,9.3z M62.7,8c1.3,3.1,5.7,7.3,5.9,7.4h8.9v1l-9,0c-0.2,0-5-4.1-6.7-8C61.7,8.3,62.7,8,62.7,8z M78.7,35.5
		l-3.1-8.1l-4.5,2.1c-0.4,0.2-0.8,0.6-0.9,2.1c0,0,0.8,0,2.5,0h0c0,0,2.3,0.2,1.5,2.6v0c-0.3,0.7-0.6,1.3-0.6,1.3H62.1L58.8,29
		c-2.2-0.6-3.9-2.6-3.9-5c0-0.3,0-0.5,0.1-0.8c0.1-0.4,0.3-1,0.7,0.1l0-0.1c0.6,1.5,1.9,2.6,3.6,4l10.4-9.3h8l6.2,18.6L78.7,35.5
		L78.7,35.5z"/>
</g>
</svg>
